<?xml version="1.0" standalone="no"?><!DOCTYPE svg PUBLIC "-//W3C//DTD SVG 1.1//EN" "http://www.w3.org/Graphics/SVG/1.1/DTD/svg11.dtd"><svg height="1024" node-id="1" sillyvg="true" template-height="1024" template-width="1024" version="1.1" viewBox="0 0 1024 1024" width="1024" xmlns="http://www.w3.org/2000/svg" xmlns:xlink="http://www.w3.org/1999/xlink"><defs node-id="101"><linearGradient gradientUnits="objectBoundingBox" id="linear-gradient" node-id="5" spreadMethod="pad" x1="0" x2="1" y1="0.418" y2="0.457"><stop offset="0" stop-color="#c3d2ef"></stop><stop offset="1" stop-color="#ffffff"></stop></linearGradient><clipPath id="clip-工作讲解-2" node-id="8"><path d="M 0.00 0.00 L 1024.00 0.00 L 1024.00 1024.00 L 0.00 1024.00 Z" fill="#000000" fill-rule="nonzero" node-id="110" stroke="none" target-height="1024" target-width="1024" target-x="0" target-y="0"></path></clipPath><clipPath id="clip-path" node-id="3"><path d="M 0.00 0.00 L 1024.00 0.00 L 1024.00 1024.00 L 0.00 1024.00 Z" fill="#000000" fill-rule="nonzero" id="工作讲解" node-id="4" stroke="none" target-height="1024" target-width="1024" target-x="0" target-y="0"></path></clipPath></defs><g clip-path="url(#clip-工作讲解-2)" id="工作讲解-2" node-id="10"><path d="M 0.00 0.00 L 1024.00 0.00 L 1024.00 1024.00 L 0.00 1024.00 Z" fill="#ffffff" fill-rule="nonzero" node-id="118" stroke="none" target-height="1024" target-width="1024" target-x="0" target-y="0"></path><g clip-path="url(#clip-path)" group-id="1" id="工作讲解-3" node-id="12"><path d="M 0.00 0.00 L 1024.00 0.00 L 1024.00 1024.00 L 0.00 1024.00 Z" fill="#ffffff" fill-rule="nonzero" group-id="1,2" id="工作讲解-4" node-id="13" stroke="none" target-height="1024" target-width="1024" target-x="0" target-y="0"></path><path d="M 56.30 346.73 L 58.82 339.09 L 61.55 332.06 L 64.47 325.59 L 67.58 319.65 L 70.86 314.21 L 75.54 307.52 L 80.44 301.52 L 85.57 296.16 L 90.94 291.40 L 96.71 287.03 L 102.67 283.15 L 108.82 279.76 L 115.17 276.83 L 121.72 274.32 L 128.40 272.18 L 135.21 270.41 L 142.19 269.01 L 151.57 267.66 L 161.04 266.81 L 170.62 266.46 L 180.22 266.54 L 189.71 266.95 L 199.12 267.70 L 213.07 269.29 L 226.30 271.24 L 239.18 273.45 L 250.82 275.60 L 271.29 279.31 L 279.99 280.49 L 286.37 280.87 L 302.15 280.96 L 331.01 281.37 L 370.72 282.29 L 419.07 283.95 L 445.47 285.10 L 473.84 286.54 L 502.74 288.24 L 532.81 290.28 L 563.12 292.64 L 593.77 295.37 L 624.37 298.49 L 654.50 302.01 L 674.51 304.63 L 693.93 307.43 L 712.77 310.41 L 731.60 313.70 L 749.45 317.16 L 766.39 320.79 L 783.27 324.82 L 798.82 329.01 L 813.11 333.34 L 823.90 336.99 L 833.73 340.70 L 842.65 344.47 L 850.74 348.27 L 858.89 352.64 L 865.92 357.02 L 871.94 361.40 L 877.05 365.80 L 880.94 369.82 L 884.11 373.84 L 886.61 377.89 L 888.50 381.97 L 889.83 386.12 L 892.10 394.54 L 894.68 402.73 L 897.56 410.70 L 900.76 418.45 L 905.45 428.62 L 910.45 438.46 L 915.77 447.98 L 924.20 461.93 L 932.78 475.24 L 949.69 500.74 L 957.54 513.13 L 964.42 525.00 L 968.56 533.02 L 972.04 540.86 L 974.88 548.51 L 976.62 554.40 L 977.88 560.23 L 978.67 566.03 L 979.00 571.81 L 978.81 577.57 L 978.04 583.40 L 976.67 589.34 L 974.67 595.40 L 972.17 601.13 L 968.92 607.09 L 964.83 613.30 L 959.82 619.80 L 946.97 635.71 L 935.98 650.10 L 925.70 664.18 L 916.64 676.97 L 899.81 700.68 L 891.64 711.54 L 883.51 721.52 L 877.86 727.88 L 871.95 733.97 L 865.76 739.78 L 859.28 745.26 L 852.23 750.57 L 844.56 755.72 L 836.64 760.44 L 827.79 765.08 L 817.94 769.64 L 811.15 772.96 L 805.01 776.61 L 799.49 780.58 L 794.26 784.95 L 789.34 789.58 L 784.72 794.45 L 778.09 802.11 L 771.55 810.13 L 764.94 818.23 L 757.86 826.46 L 752.91 831.79 L 747.48 837.08 L 741.56 842.33 L 735.36 847.21 L 728.37 851.97 L 720.55 856.59 L 714.58 859.66 L 707.99 862.61 L 700.72 865.44 L 692.74 868.11 L 684.88 870.34 L 676.19 872.37 L 666.59 874.19 L 656.01 875.76 L 645.74 876.89 L 634.42 877.73 L 621.95 878.24 L 608.27 878.39 L 595.05 878.17 L 580.55 877.53 L 564.71 876.45 L 547.42 874.89 L 526.84 872.63 L 508.51 870.34 L 492.27 868.03 L 476.09 865.43 L 461.84 862.85 L 449.36 860.30 L 436.94 857.45 L 426.12 854.67 L 416.76 851.97 L 407.47 848.97 L 399.44 846.08 L 392.54 843.31 L 382.68 838.79 L 374.77 834.59 L 367.54 830.18 L 361.54 826.08 L 350.90 818.07 L 345.94 814.33 L 340.94 810.83 L 335.69 807.62 L 329.73 804.61 L 325.57 802.89 L 320.79 801.25 L 315.33 799.71 L 309.81 798.48 L 303.34 797.36 L 295.82 796.40 L 287.46 795.80 L 278.75 795.69 L 269.66 796.09 L 260.59 796.90 L 251.30 798.04 L 241.80 799.52 L 227.57 802.16 L 213.25 805.18 L 185.04 811.55 L 171.25 814.57 L 158.20 817.14 L 149.53 818.60 L 141.39 819.68 L 133.74 820.42 L 126.06 820.75 L 119.06 820.56 L 112.69 819.89 L 107.93 818.96 L 103.60 817.67 L 99.66 816.02 L 96.06 814.04 L 92.75 811.61 L 89.79 808.72 L 87.17 805.32 L 84.88 801.36 L 83.15 797.25 L 81.75 792.44 L 80.74 786.84 L 80.17 780.34 L 79.58 762.66 L 79.46 748.31 L 79.70 734.94 L 80.23 723.99 L 81.03 713.72 L 81.97 704.97 L 84.16 688.83 L 86.29 673.15 L 87.15 664.92 L 87.84 655.52 L 88.24 645.56 L 88.31 633.51 L 87.91 626.25 L 86.90 618.31 L 85.22 609.63 L 81.98 596.50 L 77.75 581.86 L 67.95 550.43 L 62.89 533.61 L 57.90 515.60 L 54.87 503.39 L 52.11 490.72 L 49.65 477.57 L 47.66 464.35 L 46.19 450.70 L 45.26 436.60 L 44.99 426.04 L 45.15 415.25 L 45.74 404.21 L 46.79 392.91 L 48.29 381.76 L 50.37 370.37 L 53.03 358.69 L 56.30 346.73 Z" fill="#f2f6fe" fill-rule="nonzero" group-id="1,3" id="路径_1166" node-id="14" stroke="none" target-height="611.9339" target-width="934.0067" target-x="44.99012" target-y="266.46088"></path><path d="M 234.15 161.54 L 234.15 147.19 L 219.80 147.19 L 218.59 146.95 L 217.62 146.29 L 216.97 145.32 L 216.72 144.12 L 216.97 142.91 L 217.62 141.94 L 218.59 141.29 L 219.80 141.04 L 234.15 141.04 L 234.15 126.69 L 234.39 125.48 L 235.05 124.52 L 236.02 123.86 L 237.22 123.61 L 238.43 123.86 L 239.40 124.52 L 240.05 125.48 L 240.30 126.69 L 240.30 141.04 L 254.65 141.04 L 255.85 141.29 L 256.82 141.94 L 257.48 142.91 L 257.72 144.12 L 257.48 145.32 L 256.82 146.29 L 255.85 146.95 L 254.65 147.19 L 240.30 147.19 L 240.30 161.54 L 240.05 162.75 L 239.40 163.72 L 238.43 164.37 L 237.22 164.62 L 236.02 164.37 L 235.05 163.72 L 234.39 162.75 L 234.15 161.54 Z" fill="#d1e6ff" fill-rule="nonzero" group-id="1,4" id="联合_163" node-id="15" stroke="none" target-height="41.001" target-width="41.001007" target-x="216.72049" target-y="123.615"></path><path d="M 293.79 254.44 L 291.66 254.19 L 289.76 253.52 L 288.03 252.43 L 286.58 251.00 L 285.49 249.30 L 284.76 247.28 L 284.51 245.15 L 284.73 243.14 L 285.38 241.21 L 286.44 239.47 L 287.85 238.02 L 289.64 236.84 L 289.60 235.86 L 289.74 233.76 L 290.18 231.80 L 290.91 229.94 L 291.90 228.21 L 293.13 226.67 L 294.59 225.31 L 296.24 224.19 L 298.06 223.32 L 300.07 222.72 L 302.15 222.45 L 304.17 222.49 L 306.13 222.84 L 308.02 223.48 L 309.77 224.38 L 311.39 225.55 L 312.82 226.95 L 314.02 228.56 L 315.00 230.42 L 316.55 229.85 L 318.18 229.66 L 319.94 229.90 L 321.49 230.49 L 322.87 231.44 L 324.00 232.69 L 324.79 234.14 L 325.25 235.86 L 326.95 236.02 L 328.50 236.45 L 329.94 237.14 L 331.81 238.59 L 333.26 240.48 L 333.95 241.92 L 334.37 243.47 L 334.52 245.17 L 334.36 246.86 L 333.93 248.42 L 333.24 249.85 L 331.79 251.73 L 329.90 253.18 L 328.46 253.86 L 326.91 254.28 L 325.21 254.44 Z" fill="#e2efff" fill-rule="nonzero" group-id="1,5" id="联合_164" node-id="16" stroke="none" target-height="31.992172" target-width="50.00699" target-x="284.515" target-y="222.44682"></path><path d="M 119.79 205.94 L 117.95 205.68 L 116.37 205.02 L 115.00 203.96 L 113.93 202.58 L 113.27 201.01 L 113.01 199.17 L 113.27 197.32 L 113.92 195.75 L 114.99 194.37 L 116.36 193.30 L 117.94 192.64 L 119.78 192.38 L 120.12 191.13 L 120.70 190.06 L 121.52 189.16 L 122.53 188.46 L 123.66 188.03 L 124.95 187.86 L 126.14 188.00 L 127.27 188.41 L 128.43 186.43 L 129.91 184.86 L 131.72 183.66 L 133.76 182.88 L 135.89 182.59 L 138.18 182.80 L 140.35 183.55 L 142.17 184.68 L 143.71 186.22 L 144.88 188.06 L 145.58 190.10 L 145.83 192.38 L 145.81 193.09 L 147.12 193.95 L 148.14 195.01 L 148.92 196.28 L 149.40 197.69 L 149.56 199.16 L 149.38 200.71 L 148.84 202.18 L 148.05 203.43 L 146.99 204.47 L 145.73 205.27 L 144.34 205.75 L 142.78 205.94 Z" fill="#e2efff" fill-rule="nonzero" group-id="1,6" id="联合_165" node-id="17" stroke="none" target-height="23.34407" target-width="36.55069" target-x="113.0065" target-y="182.59393"></path><path d="M 802.00 383.50 L 802.18 381.58 L 802.66 379.83 L 803.43 378.20 L 804.48 376.73 L 805.73 375.48 L 807.20 374.43 L 808.83 373.66 L 810.58 373.18 L 812.50 373.00 L 814.42 373.18 L 816.17 373.66 L 817.80 374.43 L 819.27 375.48 L 820.52 376.73 L 821.57 378.20 L 822.34 379.83 L 822.82 381.58 L 823.00 383.50 L 822.82 385.42 L 822.34 387.17 L 821.57 388.80 L 820.52 390.27 L 819.27 391.52 L 817.80 392.57 L 816.17 393.34 L 814.42 393.82 L 812.50 394.00 L 810.58 393.82 L 808.83 393.34 L 807.20 392.57 L 805.73 391.52 L 804.48 390.27 L 803.43 388.80 L 802.66 387.17 L 802.18 385.42 L 802.00 383.50 Z" fill="#ffffff" fill-rule="nonzero" group-id="1,7" id="椭圆_379" node-id="18" stroke="none" target-height="21" target-width="21" target-x="802" target-y="373"></path><path d="M 865.08 202.03 L 866.90 202.20 L 868.57 202.65 L 870.12 203.39 L 871.53 204.39 L 872.72 205.58 L 873.71 206.98 L 874.45 208.53 L 874.91 210.20 L 875.08 212.03 L 875.08 373.50 L 874.91 375.33 L 874.45 377.00 L 873.71 378.55 L 872.72 379.95 L 871.53 381.14 L 870.12 382.13 L 868.57 382.87 L 866.90 383.33 L 865.08 383.50 L 680.95 383.50 L 679.13 383.33 L 677.45 382.87 L 675.90 382.13 L 674.50 381.14 L 673.31 379.95 L 672.32 378.55 L 671.58 377.00 L 671.12 375.33 L 670.95 373.50 L 670.95 212.03 L 671.12 210.20 L 671.58 208.53 L 672.32 206.98 L 673.31 205.58 L 674.50 204.39 L 675.90 203.39 L 677.45 202.65 L 679.13 202.20 L 680.95 202.03 Z" fill="#bcd5fb" fill-rule="nonzero" group-id="1,8,12" id="矩形_1433" node-id="20" stroke="none" target-height="181.472" target-width="204.125" target-x="670.952" target-y="202.028"></path><path d="M 852.83 214.54 L 854.66 214.71 L 856.33 215.16 L 857.88 215.90 L 859.28 216.90 L 860.47 218.09 L 861.46 219.49 L 862.20 221.04 L 862.66 222.71 L 862.83 224.54 L 862.83 361.52 L 862.66 363.34 L 862.20 365.01 L 861.46 366.56 L 860.47 367.97 L 859.28 369.16 L 857.88 370.15 L 856.33 370.89 L 854.66 371.35 L 852.83 371.52 L 693.20 371.52 L 691.37 371.35 L 689.70 370.89 L 688.15 370.15 L 686.75 369.16 L 685.56 367.97 L 684.56 366.56 L 683.82 365.01 L 683.37 363.34 L 683.20 361.52 L 683.20 224.54 L 683.37 222.71 L 683.82 221.04 L 684.56 219.49 L 685.56 218.09 L 686.75 216.90 L 688.15 215.90 L 689.70 215.16 L 691.37 214.71 L 693.20 214.54 Z" fill="#ffffff" fill-rule="nonzero" group-id="1,8,13" id="矩形_1487" node-id="21" stroke="none" target-height="156.978" target-width="179.63098" target-x="683.19904" target-y="214.539"></path><path d="M 769.33 223.40 L 770.68 223.59 L 771.84 224.07 L 772.85 224.86 L 773.63 225.86 L 774.12 227.02 L 774.31 228.37 L 774.12 229.72 L 773.63 230.88 L 772.85 231.89 L 771.84 232.67 L 770.68 233.15 L 769.33 233.35 L 692.87 233.35 L 691.52 233.15 L 690.36 232.67 L 689.36 231.89 L 688.57 230.88 L 688.09 229.72 L 687.90 228.37 L 688.09 227.02 L 688.57 225.86 L 689.36 224.86 L 690.36 224.07 L 691.52 223.59 L 692.87 223.40 Z" fill="#cfe2fa" fill-rule="nonzero" group-id="1,8,14" id="矩形_1434" node-id="22" stroke="none" target-height="9.947006" target-width="86.40796" target-x="687.89856" target-y="223.399"></path><path d="M 854.45 223.40 L 855.80 223.59 L 856.96 224.07 L 857.97 224.86 L 858.75 225.86 L 859.23 227.02 L 859.42 228.37 L 859.23 229.72 L 858.75 230.88 L 857.97 231.89 L 856.96 232.67 L 855.80 233.15 L 854.45 233.35 L 797.34 233.35 L 795.98 233.15 L 794.83 232.67 L 793.82 231.89 L 793.04 230.88 L 792.55 229.72 L 792.36 228.37 L 792.55 227.02 L 793.04 225.86 L 793.82 224.86 L 794.83 224.07 L 795.98 223.59 L 797.34 223.40 Z" fill="#5095fe" fill-rule="nonzero" group-id="1,8,15" id="矩形_1435" node-id="23" stroke="none" target-height="9.947006" target-width="67.06299" target-x="792.3616" target-y="223.399"></path><path d="M 789.65 245.10 L 790.71 245.32 L 791.57 245.90 L 792.15 246.75 L 792.36 247.81 L 792.15 248.88 L 791.57 249.73 L 790.71 250.31 L 789.65 250.53 L 690.61 250.53 L 689.55 250.31 L 688.69 249.73 L 688.12 248.88 L 687.90 247.81 L 688.12 246.75 L 688.69 245.90 L 689.55 245.32 L 690.61 245.10 Z" fill="#5095fe" fill-rule="nonzero" group-id="1,8,16" id="矩形_1436" node-id="24" stroke="none" target-height="5.425995" target-width="104.46301" target-x="687.89905" target-y="245.102"></path><path d="M 740.64 255.95 L 741.71 256.17 L 742.56 256.75 L 743.14 257.60 L 743.36 258.67 L 743.14 259.73 L 742.56 260.58 L 741.71 261.16 L 740.64 261.38 L 690.61 261.38 L 689.55 261.16 L 688.69 260.58 L 688.12 259.73 L 687.90 258.67 L 688.12 257.60 L 688.69 256.75 L 689.55 256.17 L 690.61 255.95 Z" fill="#5095fe" fill-rule="nonzero" group-id="1,8,17" id="矩形_1437" node-id="25" stroke="none" target-height="5.425995" target-width="55.455994" target-x="687.89905" target-y="255.953"></path><path d="M 857.62 273.13 L 858.54 273.36 L 859.22 274.03 L 859.47 274.94 L 859.22 275.86 L 858.54 276.52 L 857.62 276.75 L 689.71 276.75 L 688.79 276.52 L 688.11 275.86 L 687.86 274.94 L 688.11 274.03 L 688.79 273.36 L 689.71 273.13 Z" fill="#cfe2fa" fill-rule="nonzero" group-id="1,8,18" id="矩形_1438" node-id="26" stroke="none" target-height="3.6170044" target-width="171.61108" target-x="687.8565" target-y="273.134"></path><path d="M 857.62 289.41 L 858.54 289.64 L 859.22 290.30 L 859.47 291.22 L 859.22 292.14 L 858.54 292.80 L 857.62 293.03 L 689.71 293.03 L 688.79 292.80 L 688.11 292.14 L 687.86 291.22 L 688.11 290.30 L 688.79 289.64 L 689.71 289.41 Z" fill="#cfe2fa" fill-rule="nonzero" group-id="1,8,19" id="矩形_1439" node-id="27" stroke="none" target-height="3.6170044" target-width="171.61108" target-x="687.8565" target-y="289.41"></path><path d="M 857.62 305.69 L 858.54 305.91 L 859.22 306.58 L 859.47 307.50 L 859.22 308.41 L 858.54 309.08 L 857.62 309.30 L 689.71 309.30 L 688.79 309.08 L 688.11 308.41 L 687.86 307.50 L 688.11 306.58 L 688.79 305.91 L 689.71 305.69 Z" fill="#cfe2fa" fill-rule="nonzero" group-id="1,8,20" id="矩形_1440" node-id="28" stroke="none" target-height="3.6170044" target-width="171.61108" target-x="687.8565" target-y="305.687"></path><path d="M 857.16 321.06 L 858.31 321.35 L 859.16 322.18 L 859.47 323.32 L 859.16 324.46 L 858.31 325.29 L 857.16 325.58 L 690.16 325.58 L 689.01 325.29 L 688.17 324.47 L 687.85 323.32 L 688.16 322.18 L 689.01 321.35 L 690.16 321.06 Z" fill="#cfe2fa" fill-rule="nonzero" group-id="1,8,21" id="矩形_1441" node-id="29" stroke="none" target-height="4.520996" target-width="171.61908" target-x="687.8535" target-y="321.059"></path><path d="M 854.90 337.34 L 856.13 337.51 L 857.18 337.95 L 858.10 338.66 L 858.81 339.58 L 859.25 340.63 L 859.43 341.86 L 859.25 343.09 L 858.81 344.14 L 858.10 345.05 L 857.18 345.77 L 856.13 346.21 L 854.90 346.38 L 692.42 346.38 L 691.19 346.21 L 690.14 345.77 L 689.22 345.05 L 688.51 344.14 L 688.07 343.09 L 687.90 341.86 L 688.07 340.63 L 688.51 339.58 L 689.22 338.66 L 690.14 337.95 L 691.19 337.51 L 692.42 337.34 Z" fill="#cfe2fa" fill-rule="nonzero" group-id="1,8,22" id="矩形_1442" node-id="30" stroke="none" target-height="9.042999" target-width="171.52698" target-x="687.89856" target-y="337.336"></path><path d="M 777.07 346.38 L 778.42 346.57 L 779.58 347.05 L 780.59 347.84 L 781.37 348.84 L 781.85 350.00 L 782.04 351.35 L 781.85 352.70 L 781.37 353.86 L 780.59 354.87 L 779.58 355.65 L 778.42 356.13 L 777.07 356.33 L 692.87 356.33 L 691.52 356.13 L 690.36 355.65 L 689.36 354.87 L 688.57 353.86 L 688.09 352.70 L 687.90 351.35 L 688.09 350.00 L 688.57 348.84 L 689.36 347.84 L 690.36 347.05 L 691.52 346.57 L 692.87 346.38 Z" fill="#cfe2fa" fill-rule="nonzero" group-id="1,8,23" id="矩形_1443" node-id="31" stroke="none" target-height="9.946991" target-width="94.145996" target-x="687.89856" target-y="346.379"></path><path d="M 840.72 356.32 L 841.94 356.50 L 843.00 356.94 L 843.91 357.65 L 844.63 358.57 L 845.06 359.62 L 845.24 360.85 L 845.06 362.07 L 844.63 363.13 L 843.91 364.04 L 843.00 364.75 L 841.94 365.19 L 840.72 365.37 L 692.42 365.37 L 691.19 365.19 L 690.14 364.75 L 689.22 364.04 L 688.51 363.13 L 688.07 362.07 L 687.90 360.85 L 688.07 359.62 L 688.51 358.57 L 689.22 357.65 L 690.14 356.94 L 691.19 356.50 L 692.42 356.32 Z" fill="#cfe2fa" fill-rule="nonzero" group-id="1,8,24" id="矩形_1444" node-id="32" stroke="none" target-height="9.042999" target-width="157.33997" target-x="687.89856" target-y="356.325"></path><path d="M 747.06 273.94 L 749.98 274.21 L 752.65 274.94 L 755.13 276.12 L 757.38 277.71 L 759.28 279.62 L 760.87 281.86 L 762.05 284.34 L 762.78 287.02 L 763.06 289.94 L 763.06 620.23 L 762.78 623.15 L 762.05 625.82 L 760.87 628.30 L 759.28 630.55 L 757.38 632.45 L 755.13 634.04 L 752.65 635.23 L 749.98 635.96 L 747.06 636.23 L 247.50 636.23 L 244.58 635.96 L 241.91 635.23 L 239.43 634.04 L 237.18 632.45 L 235.28 630.55 L 233.69 628.30 L 232.51 625.82 L 231.78 623.15 L 231.50 620.23 L 231.50 289.94 L 231.78 287.02 L 232.51 284.34 L 233.69 281.86 L 235.28 279.62 L 237.18 277.71 L 239.43 276.12 L 241.91 274.94 L 244.58 274.21 L 247.50 273.94 Z" fill="#458cfb" fill-rule="nonzero" group-id="1,9,25" id="矩形_1402" node-id="34" stroke="none" target-height="362.287" target-width="531.552" target-x="231.504" target-y="273.94"></path><path d="M 231.50 318.27 L 763.06 318.27 L 763.06 636.23 L 231.50 636.23 Z" fill="#e9f3ff" fill-rule="nonzero" group-id="1,9,26" id="矩形_1404" node-id="35" stroke="none" target-height="317.96" target-width="531.552" target-x="231.504" target-y="318.267"></path><path d="M 763.06 636.23 L 763.06 650.73 L 762.89 652.55 L 762.43 654.23 L 761.69 655.77 L 760.70 657.18 L 759.51 658.37 L 758.10 659.36 L 756.55 660.10 L 754.88 660.56 L 753.06 660.73 L 241.50 660.73 L 239.68 660.56 L 238.01 660.10 L 236.46 659.36 L 235.05 658.37 L 233.86 657.18 L 232.87 655.77 L 232.13 654.23 L 231.67 652.55 L 231.50 650.73 L 231.50 636.23 Z" fill="#355466" fill-rule="nonzero" group-id="1,9,27" id="矩形_1515" node-id="36" stroke="none" target-height="24.5" target-width="531.552" target-x="231.504" target-y="636.227"></path><path d="M 395.47 660.73 L 599.08 660.73 L 599.08 685.23 L 395.47 685.23 Z" fill="#294457" fill-rule="nonzero" group-id="1,9,28" id="矩形_1516" node-id="37" stroke="none" target-height="24.5" target-width="203.60901" target-x="395.47498" target-y="660.726"></path><path d="M 275.62 685.23 L 718.94 685.23 L 718.94 709.73 L 275.62 709.73 Z" fill="#355466" fill-rule="nonzero" group-id="1,9,29" id="矩形_1517" node-id="38" stroke="none" target-height="24.5" target-width="443.31796" target-x="275.621" target-y="685.225"></path><path d="M 250.49 297.95 L 250.65 296.23 L 251.08 294.65 L 251.78 293.19 L 253.26 291.28 L 255.16 289.81 L 256.62 289.11 L 258.20 288.68 L 259.92 288.52 L 261.64 288.68 L 263.22 289.11 L 264.68 289.81 L 266.59 291.28 L 268.06 293.19 L 268.76 294.65 L 269.19 296.23 L 269.35 297.95 L 269.19 299.67 L 268.76 301.25 L 268.06 302.71 L 266.59 304.62 L 264.68 306.09 L 263.22 306.79 L 261.64 307.22 L 259.92 307.38 L 258.20 307.22 L 256.62 306.79 L 255.16 306.09 L 253.26 304.62 L 251.78 302.71 L 251.08 301.25 L 250.65 299.67 L 250.49 297.95 Z" fill="#f92d2d" fill-rule="nonzero" group-id="1,9,30" id="椭圆_356" node-id="39" stroke="none" target-height="18.855988" target-width="18.856003" target-x="250.494" target-y="288.521"></path><path d="M 289.10 297.50 L 289.43 295.09 L 290.33 292.97 L 291.73 291.15 L 293.55 289.75 L 295.68 288.85 L 298.08 288.52 L 300.49 288.85 L 302.61 289.75 L 304.43 291.15 L 305.84 292.97 L 306.74 295.09 L 307.06 297.50 L 306.74 299.91 L 305.84 302.03 L 304.43 303.85 L 302.61 305.25 L 300.49 306.15 L 298.08 306.48 L 295.68 306.15 L 293.55 305.25 L 291.73 303.85 L 290.33 302.03 L 289.43 299.91 L 289.10 297.50 Z" fill="#f9de2d" fill-rule="nonzero" group-id="1,9,31" id="椭圆_357" node-id="40" stroke="none" target-height="17.958008" target-width="17.958008" target-x="289.103" target-y="288.521"></path><path d="M 326.81 297.95 L 326.98 296.23 L 327.41 294.65 L 328.10 293.19 L 329.58 291.28 L 331.48 289.81 L 332.95 289.11 L 334.52 288.68 L 336.24 288.52 L 337.96 288.68 L 339.54 289.11 L 341.00 289.81 L 342.91 291.28 L 344.38 293.19 L 345.08 294.65 L 345.51 296.23 L 345.67 297.95 L 345.51 299.67 L 345.08 301.25 L 344.38 302.71 L 342.91 304.62 L 341.00 306.09 L 339.54 306.79 L 337.96 307.22 L 336.24 307.38 L 334.52 307.22 L 332.95 306.79 L 331.48 306.09 L 329.58 304.62 L 328.10 302.71 L 327.41 301.25 L 326.98 299.67 L 326.81 297.95 Z" fill="#18c45d" fill-rule="nonzero" group-id="1,9,32" id="椭圆_358" node-id="41" stroke="none" target-height="18.855988" target-width="18.855988" target-x="326.815" target-y="288.521"></path><path d="M 242.74 329.63 L 751.82 329.63 L 751.82 624.87 L 242.74 624.87 Z" fill="#ffffff" fill-rule="nonzero" group-id="1,9,33" id="矩形_1518" node-id="42" stroke="none" target-height="295.24203" target-width="509.083" target-x="242.73799" target-y="329.626"></path><path d="M 491.24 467.64 L 254.88 467.64 L 254.88 337.49 L 491.24 337.49 L 491.24 467.64 Z" fill="#ffffff" fill-rule="nonzero" group-id="1,9,34,55" node-id="238" stroke="none" target-height="130.156" target-width="236.35799" target-x="254.882" target-y="337.488"></path><path d="M 255.38 337.99 L 255.38 467.14 L 490.74 467.14 L 490.74 337.99 L 255.38 337.99 M 254.38 336.99 L 491.74 336.99 L 491.74 468.14 L 254.38 468.14 L 254.38 336.99 Z" fill="#c5defb" fill-rule="nonzero" group-id="1,9,34,55" node-id="240" stroke="none" target-height="131.156" target-width="237.35799" target-x="254.382" target-y="336.988"></path><path d="M 372.76 436.24 L 444.88 379.00 L 491.74 468.15 L 254.38 468.15 L 309.31 414.92 Z" fill="#bed7ff" fill-rule="nonzero" group-id="1,9,34,56" id="路径_1242" node-id="47" stroke="none" target-height="89.145996" target-width="237.36201" target-x="254.382" target-y="378.99902"></path><path d="M 343.20 389.63 L 343.49 386.72 L 344.26 384.04 L 345.50 381.56 L 347.17 379.32 L 349.18 377.41 L 351.55 375.82 L 354.16 374.64 L 356.98 373.90 L 360.06 373.63 L 363.14 373.90 L 365.96 374.64 L 368.56 375.82 L 370.94 377.41 L 372.94 379.32 L 374.61 381.56 L 375.86 384.04 L 376.62 386.72 L 376.91 389.63 L 376.62 392.55 L 375.86 395.22 L 374.61 397.71 L 372.94 399.94 L 370.94 401.85 L 368.56 403.45 L 365.96 404.63 L 363.14 405.36 L 360.06 405.63 L 356.98 405.36 L 354.16 404.63 L 351.55 403.45 L 349.18 401.85 L 347.17 399.94 L 345.50 397.71 L 344.26 395.22 L 343.49 392.55 L 343.20 389.63 Z" fill="#bed7ff" fill-rule="nonzero" group-id="1,9,34,57" id="椭圆_380" node-id="48" stroke="none" target-height="32" target-width="33.705994" target-x="343.204" target-y="373.63202"></path><path d="M 514.90 467.63 L 514.90 454.00 L 732.93 454.00 L 732.93 467.63 Z M 514.90 438.28 L 514.90 424.65 L 732.93 424.65 L 732.93 438.28 Z M 514.90 409.97 L 514.90 396.34 L 732.93 396.34 L 732.93 409.97 Z M 514.90 380.62 L 514.90 366.99 L 732.93 366.99 L 732.93 380.62 Z M 514.90 351.26 L 514.90 337.63 L 732.93 337.63 L 732.93 351.26 Z" fill="#bed7ff" fill-rule="nonzero" group-id="1,9,35" id="联合_171" node-id="49" stroke="none" target-height="130" target-width="218.03699" target-x="514.896" target-y="337.63202"></path><path d="M 460.92 546.57 L 480.31 546.57 L 480.31 603.94 L 460.92 603.94 Z" fill="#458cfb" fill-rule="nonzero" group-id="1,9,36,58" id="矩形_1445" node-id="51" stroke="none" target-height="57.372986" target-width="19.384003" target-x="460.924" target-y="546.567"></path><path d="M 511.10 560.64 L 530.48 560.64 L 530.48 603.94 L 511.10 603.94 Z" fill="#458cfb" fill-rule="nonzero" group-id="1,9,36,59" id="矩形_1446" node-id="52" stroke="none" target-height="43.299988" target-width="19.384003" target-x="511.095" target-y="560.64"></path><path d="M 562.40 531.41 L 581.79 531.41 L 581.79 603.94 L 562.40 603.94 Z" fill="#458cfb" fill-rule="nonzero" group-id="1,9,36,60" id="矩形_1447" node-id="53" stroke="none" target-height="72.52899" target-width="19.383972" target-x="562.405" target-y="531.411"></path><path d="M 612.58 560.64 L 631.96 560.64 L 631.96 603.94 L 612.58 603.94 Z" fill="#458cfb" fill-rule="nonzero" group-id="1,9,36,61" id="矩形_1448" node-id="54" stroke="none" target-height="43.299988" target-width="19.383972" target-x="612.576" target-y="560.64"></path><path d="M 662.75 531.41 L 682.13 531.41 L 682.13 603.94 L 662.75 603.94 Z" fill="#458cfb" fill-rule="nonzero" group-id="1,9,36,62" id="矩形_1449" node-id="55" stroke="none" target-height="72.52899" target-width="19.383972" target-x="662.74603" target-y="531.411"></path><path d="M 714.06 504.35 L 733.44 504.35 L 733.44 603.94 L 714.06 603.94 Z" fill="#458cfb" fill-rule="nonzero" group-id="1,9,36,63" id="矩形_1450" node-id="56" stroke="none" target-height="99.591" target-width="19.383972" target-x="714.057" target-y="504.34802"></path><path d="M 466.45 538.29 L 517.56 552.59 L 567.80 518.72 L 621.50 552.59 L 671.75 518.72 L 720.26 496.14" fill="none" group-id="1,9,36,64" id="路径_1200" node-id="57" stroke="#1e6ce5" stroke-linecap="butt" stroke-width="1" target-height="56.45099" target-width="253.80704" target-x="466.45102" target-y="496.13702"></path><path d="M 329.23 598.60 L 324.53 598.38 L 319.93 597.73 L 315.42 596.64 L 310.98 595.10 L 306.90 593.24 L 303.07 591.04 L 299.47 588.48 L 296.08 585.56 L 293.03 582.39 L 290.35 578.99 L 288.02 575.33 L 286.03 571.42 L 284.41 567.17 L 283.26 562.88 L 282.57 558.53 L 282.34 554.09 L 282.57 549.66 L 283.26 545.30 L 284.41 541.02 L 286.03 536.77 L 288.02 532.85 L 290.35 529.20 L 293.03 525.79 L 296.08 522.62 L 299.47 519.70 L 303.07 517.14 L 306.90 514.94 L 310.98 513.08 L 315.47 511.55 L 320.00 510.46 L 324.58 509.80 L 329.23 509.58 L 333.88 509.80 L 338.46 510.46 L 342.99 511.55 L 347.48 513.08 L 351.55 514.94 L 355.38 517.14 L 358.99 519.70 L 362.38 522.62 L 365.42 525.79 L 368.10 529.20 L 370.43 532.85 L 372.43 536.77 L 374.05 541.02 L 375.19 545.30 L 375.88 549.66 L 376.11 554.09 L 375.88 558.53 L 375.19 562.88 L 374.05 567.17 L 372.43 571.42 L 370.43 575.34 L 368.10 578.99 L 365.42 582.39 L 362.38 585.57 L 358.98 588.49 L 355.38 591.04 L 351.55 593.25 L 347.48 595.10 L 343.03 596.64 L 338.52 597.73 L 333.93 598.38 L 329.23 598.60 Z M 329.23 525.85 L 325.14 526.12 L 321.30 526.86 L 317.66 528.07 L 314.20 529.73 L 311.05 531.74 L 308.20 534.13 L 305.67 536.85 L 303.55 539.84 L 301.82 543.11 L 300.54 546.57 L 299.76 550.22 L 299.48 554.09 L 299.76 557.96 L 300.54 561.61 L 301.82 565.08 L 303.55 568.34 L 305.67 571.33 L 308.20 574.06 L 311.05 576.44 L 314.20 578.46 L 317.66 580.11 L 321.30 581.32 L 325.14 582.07 L 329.23 582.34 L 333.31 582.07 L 337.16 581.32 L 340.80 580.11 L 344.26 578.46 L 347.40 576.44 L 350.26 574.06 L 352.78 571.33 L 354.90 568.34 L 356.64 565.08 L 357.91 561.61 L 358.70 557.96 L 358.98 554.09 L 358.70 550.22 L 357.91 546.57 L 356.64 543.11 L 354.90 539.84 L 352.78 536.85 L 350.25 534.13 L 347.40 531.74 L 344.26 529.73 L 340.80 528.07 L 337.16 526.86 L 333.31 526.12 L 329.23 525.85 Z" fill="#458cfb" fill-rule="nonzero" group-id="1,9,37,65" id="减去_40" node-id="59" stroke="none" target-height="89.01636" target-width="93.764496" target-x="282.34476" target-y="509.58466"></path><path d="M 329.77 598.60 L 329.77 598.60 L 329.77 582.34 L 333.70 582.11 L 337.50 581.41 L 341.19 580.23 L 344.71 578.60 L 347.98 576.55 L 351.04 574.05 L 353.65 571.30 L 355.81 568.29 L 357.54 565.00 L 358.81 561.50 L 359.58 557.88 L 359.86 554.09 L 359.57 550.22 L 358.78 546.57 L 357.49 543.11 L 355.74 539.84 L 353.59 536.85 L 351.04 534.13 L 348.15 531.74 L 344.97 529.72 L 341.47 528.07 L 337.79 526.86 L 333.90 526.11 L 329.77 525.84 L 329.77 509.58 L 334.52 509.80 L 339.16 510.45 L 343.73 511.54 L 348.22 513.08 L 352.34 514.94 L 356.21 517.14 L 359.86 519.69 L 363.30 522.62 L 366.37 525.79 L 369.08 529.19 L 371.44 532.84 L 373.46 536.77 L 375.10 541.01 L 376.26 545.30 L 376.96 549.65 L 377.19 554.09 L 376.96 558.53 L 376.26 562.88 L 375.10 567.17 L 373.46 571.42 L 371.44 575.34 L 369.08 578.99 L 366.37 582.40 L 363.30 585.56 L 359.86 588.49 L 356.21 591.05 L 352.34 593.25 L 348.22 595.10 L 343.73 596.64 L 339.16 597.73 L 334.52 598.38 L 329.77 598.60 Z" fill="#fbb245" fill-rule="nonzero" group-id="1,9,37,66" id="减去_42" node-id="60" stroke="none" target-height="89.01898" target-width="47.421936" target-x="329.766" target-y="509.581"></path><path d="M 329.33 598.81 L 329.33 598.81 L 329.33 582.51 L 333.24 582.28 L 337.01 581.57 L 340.67 580.39 L 344.16 578.76 L 347.39 576.70 L 350.41 574.21 L 353.05 571.35 L 355.26 568.18 L 357.01 564.74 L 358.27 561.06 L 375.77 561.06 L 375.03 564.65 L 373.98 568.15 L 372.63 571.56 L 370.64 575.49 L 368.30 579.15 L 365.61 582.56 L 362.56 585.74 L 359.16 588.67 L 355.55 591.23 L 351.71 593.44 L 347.62 595.30 L 343.17 596.84 L 338.65 597.93 L 334.04 598.59 L 329.33 598.81 Z" fill="#c62bcb" fill-rule="nonzero" group-id="1,9,37,67" id="减去_45" node-id="61" stroke="none" target-height="37.749023" target-width="46.440002" target-x="329.33398" target-y="561.058"></path><path d="M 170.66 732.63 L 161.08 732.63 L 161.08 718.80 L 170.38 720.61 Z" fill="#c77760" fill-rule="nonzero" group-id="1,10,38,68,83" id="路径_1163" node-id="65" stroke="none" target-height="13.838013" target-width="9.576004" target-x="161.082" target-y="718.79596"></path><path d="M 161.22 728.69 L 160.94 740.22 L 163.28 740.18 L 169.12 740.09 L 176.71 739.97 L 184.31 739.84 L 190.17 739.73 L 192.53 739.66 L 192.27 738.98 L 191.55 738.14 L 190.15 737.07 L 187.79 735.69 L 184.71 734.17 L 178.27 731.47 L 172.90 729.47 L 170.65 728.69 Z" fill="#272f31" fill-rule="nonzero" group-id="1,10,38,68,84" id="路径_1164" node-id="66" stroke="none" target-height="11.526978" target-width="31.589996" target-x="160.943" target-y="728.69196"></path><path d="M 232.66 732.63 L 223.08 732.63 L 223.08 718.80 L 232.38 720.61 Z" fill="#c77760" fill-rule="nonzero" group-id="1,10,38,69,85" id="路径_1163-2" node-id="68" stroke="none" target-height="13.838013" target-width="9.576004" target-x="223.082" target-y="718.79596"></path><path d="M 223.22 728.69 L 222.94 740.22 L 225.28 740.18 L 231.12 740.09 L 238.71 739.97 L 246.31 739.84 L 252.17 739.73 L 254.53 739.66 L 254.27 738.98 L 253.55 738.14 L 252.15 737.07 L 249.79 735.69 L 246.71 734.17 L 240.27 731.47 L 234.90 729.47 L 232.65 728.69 Z" fill="#272f31" fill-rule="nonzero" group-id="1,10,38,69,86" id="路径_1164-2" node-id="69" stroke="none" target-height="11.526978" target-width="31.589996" target-x="222.943" target-y="728.69196"></path><path d="M 166.83 650.58 L 165.78 658.22 L 164.60 670.22 L 163.40 684.56 L 162.28 699.24 L 161.35 712.22 L 160.72 721.49 L 160.49 725.03 L 173.52 725.20 L 174.29 721.16 L 176.30 710.54 L 179.12 695.61 L 182.29 678.62 L 185.37 661.83 L 187.93 647.50 L 189.14 639.94 L 190.25 632.04 L 192.07 616.60 L 193.39 603.15 L 194.18 593.65 L 194.45 590.04 L 195.39 592.99 L 197.81 600.60 L 201.13 611.04 L 204.74 622.44 L 208.06 632.98 L 210.49 640.81 L 211.43 644.07 L 211.82 647.70 L 212.85 656.73 L 214.30 669.35 L 215.97 683.75 L 217.64 698.11 L 219.10 710.62 L 220.13 719.45 L 220.52 722.80 L 234.58 722.80 L 234.43 718.67 L 234.02 707.90 L 233.44 692.89 L 232.76 676.05 L 232.07 659.78 L 231.45 646.49 L 230.99 638.58 L 230.16 631.57 L 228.53 619.50 L 226.37 604.21 L 223.97 587.55 L 221.61 571.38 L 219.57 557.53 L 218.14 547.87 L 217.60 544.24 L 169.57 551.25 L 169.54 555.07 L 169.45 565.21 L 169.29 579.75 L 169.04 596.74 L 168.68 614.26 L 168.20 630.36 L 167.59 643.12 L 167.19 648.02 L 166.83 650.58 Z" fill="#151f5d" fill-rule="nonzero" group-id="1,10,38,70" id="路径_1199" node-id="70" stroke="none" target-height="180.95703" target-width="74.09999" target-x="160.485" target-y="544.24097"></path><path d="M 199.39 448.88 L 198.15 450.10 L 196.60 450.95 L 194.91 451.50 L 193.51 451.79 L 192.06 451.94 L 192.73 470.54 L 179.33 470.54 L 180.16 451.94 L 178.21 450.37 L 176.56 448.50 L 175.25 446.39 L 174.30 444.06 L 173.95 442.33 L 173.74 439.87 L 173.71 437.26 L 173.86 434.39 L 174.18 431.54 L 174.66 428.92 L 175.35 426.49 L 176.15 424.73 L 176.85 423.78 L 177.57 423.27 L 178.32 423.12 L 182.23 423.75 L 187.92 425.13 L 193.86 426.75 L 198.54 428.09 L 200.44 428.64 L 200.53 430.47 L 200.65 434.94 L 200.63 440.52 L 200.28 445.68 L 199.87 447.77 L 199.39 448.88 Z" fill="#be6d5c" fill-rule="nonzero" group-id="1,10,39" id="路径_1188" node-id="71" stroke="none" target-height="47.42801" target-width="26.940994" target-x="173.71193" target-y="423.115"></path><path d="M 177.45 449.39 L 179.07 450.10 L 181.23 450.43 L 183.52 450.44 L 185.84 450.23 L 189.73 449.54 L 191.37 449.15 L 191.60 447.21 L 192.31 442.95 L 192.88 440.62 L 193.55 438.70 L 194.16 437.56 L 194.76 436.97 L 195.37 436.76 L 196.86 436.67 L 198.51 436.35 L 200.09 435.79 L 201.42 434.98 L 202.40 433.87 L 202.84 432.42 L 202.80 430.92 L 202.53 429.84 L 201.70 428.11 L 201.39 427.36 L 201.30 426.60 L 201.53 426.09 L 202.14 425.60 L 203.83 424.68 L 204.70 424.08 L 205.45 423.29 L 205.93 422.30 L 206.07 420.90 L 205.82 419.93 L 205.24 418.93 L 204.26 417.87 L 202.47 416.50 L 200.22 415.25 L 197.82 414.26 L 195.49 413.59 L 193.23 413.28 L 191.59 413.42 L 189.69 413.72 L 188.14 413.69 L 185.08 413.24 L 183.44 413.08 L 181.37 413.12 L 179.20 413.44 L 177.19 413.99 L 175.34 414.82 L 173.84 415.91 L 172.71 417.31 L 172.05 419.07 L 171.63 420.76 L 171.31 421.57 L 170.58 422.63 L 169.79 424.13 L 169.56 425.09 L 169.29 427.23 L 169.15 429.67 L 169.18 432.76 L 169.47 435.95 L 170.10 439.26 L 171.14 442.44 L 172.65 445.29 L 173.96 446.95 L 175.55 448.31 L 177.45 449.39 Z" fill="#192360" fill-rule="nonzero" group-id="1,10,40" id="路径_1189" node-id="72" stroke="none" target-height="37.35855" target-width="36.921204" target-x="169.1488" target-y="413.0775"></path><path d="M 192.56 460.48 L 198.18 460.48 L 197.38 461.67 L 196.46 462.82 L 195.06 464.27 L 193.39 465.62 L 191.33 466.81 L 189.02 467.59 L 186.31 467.82 L 183.54 467.45 L 180.93 466.67 L 178.48 465.60 L 176.40 464.44 L 173.28 462.26 L 172.12 461.28 L 179.60 461.19 L 181.04 461.73 L 182.52 462.16 L 184.52 462.56 L 186.63 462.73 L 188.79 462.54 L 190.16 462.15 L 191.41 461.47 L 192.56 460.48 Z" fill="#ffffff" fill-rule="nonzero" group-id="1,10,41" id="路径_1190" node-id="73" stroke="none" target-height="7.3399963" target-width="26.063004" target-x="172.117" target-y="460.48398"></path><path d="M 168.16 552.96 L 170.37 553.82 L 176.31 555.62 L 180.22 556.48 L 184.94 557.19 L 189.87 557.54 L 195.23 557.39 L 200.05 556.86 L 204.43 556.11 L 208.40 555.16 L 212.30 553.91 L 215.52 552.53 L 218.15 551.04 L 220.50 549.19 L 222.05 547.31 L 222.94 545.37 L 222.28 542.21 L 221.71 540.33 L 221.07 538.84 L 220.66 538.18 L 220.21 537.72 L 168.16 548.98 Z" fill="#ffffff" fill-rule="nonzero" group-id="1,10,42" id="路径_1192" node-id="74" stroke="none" target-height="19.818176" target-width="54.783005" target-x="168.159" target-y="537.719"></path><path d="M 148.91 571.50 L 150.26 573.11 L 152.02 574.65 L 153.97 575.95 L 155.91 576.91 L 157.84 577.50 L 159.31 577.58 L 160.12 577.34 L 160.64 576.82 L 160.92 575.98 L 160.83 574.43 L 160.26 572.43 L 158.33 568.13 L 156.08 563.73 L 155.10 561.63 L 154.46 559.88 L 153.31 555.17 L 152.48 550.38 L 144.56 552.36 L 144.56 556.50 L 144.81 558.21 L 145.60 562.31 L 146.95 567.26 L 147.89 569.63 L 148.91 571.50 Z" fill="#c46956" fill-rule="nonzero" group-id="1,10,43" id="路径_1194" node-id="75" stroke="none" target-height="27.19751" target-width="16.360992" target-x="144.56" target-y="550.384"></path><path d="M 143.51 560.80 L 145.32 561.19 L 147.18 561.39 L 149.74 561.39 L 152.40 561.00 L 155.25 560.01 L 154.63 556.56 L 153.79 553.15 L 143.51 555.92 Z" fill="#ffffff" fill-rule="nonzero" group-id="1,10,44" id="路径_1195" node-id="76" stroke="none" target-height="8.239014" target-width="11.742004" target-x="143.506" target-y="553.15497"></path><path d="M 146.59 495.36 L 145.61 497.40 L 143.44 502.47 L 142.28 505.62 L 141.23 509.00 L 140.45 512.40 L 140.12 515.43 L 140.18 521.11 L 140.49 529.31 L 140.93 538.43 L 141.39 546.90 L 141.76 553.14 L 141.91 555.57 L 143.50 556.01 L 147.31 556.74 L 149.59 556.94 L 151.88 556.89 L 154.03 556.45 L 155.73 555.57 L 155.75 551.31 L 155.47 543.92 L 155.01 535.14 L 154.51 526.72 L 154.11 520.39 L 153.95 517.89 L 155.06 515.40 L 157.76 509.42 L 161.03 502.19 L 163.88 495.94 L 165.32 492.91 L 165.35 492.26 L 164.96 490.03 L 163.46 484.11 L 161.44 477.27 L 159.47 471.62 L 158.55 469.66 L 158.16 469.27 L 157.80 469.59 L 156.85 471.21 L 154.58 476.04 L 151.88 482.32 L 149.30 488.60 L 147.35 493.43 L 146.59 495.36 Z" fill="#4165ff" fill-rule="nonzero" group-id="1,10,45" id="路径_1193" node-id="77" stroke="none" target-height="87.67157" target-width="25.22432" target-x="140.122" target-y="469.27197"></path><path d="M 255.77 418.89 L 256.10 414.65 L 256.38 412.11 L 256.76 411.51 L 257.39 411.38 L 258.04 411.81 L 258.59 412.95 L 259.13 415.77 L 259.32 417.68 L 259.69 416.60 L 260.55 413.40 L 261.67 409.37 L 262.82 405.83 L 263.42 404.52 L 263.79 404.07 L 264.45 403.89 L 265.06 403.97 L 266.03 404.52 L 266.42 404.89 L 265.01 415.06 L 266.21 415.54 L 268.87 416.85 L 270.32 417.75 L 271.58 418.76 L 272.52 419.92 L 272.89 421.07 L 272.77 422.79 L 272.25 424.81 L 271.44 426.76 L 270.52 428.42 L 269.46 429.75 L 268.66 430.26 L 267.71 431.61 L 266.41 432.62 L 264.44 433.34 L 262.37 433.71 L 258.77 428.72 L 257.85 427.30 L 257.08 425.80 L 256.27 423.70 L 255.78 421.41 L 255.77 418.89 Z" fill="#b36a59" fill-rule="nonzero" group-id="1,10,46" id="路径_1197" node-id="78" stroke="none" target-height="29.82483" target-width="17.126007" target-x="255.767" target-y="403.88715"></path><path d="M 258.04 427.61 L 259.87 427.67 L 263.79 428.06 L 265.89 428.48 L 267.49 429.06 L 268.34 429.62 L 268.69 430.24 L 268.66 430.97 L 267.80 432.83 L 266.63 434.46 L 265.14 435.89 L 256.87 431.90 L 257.42 429.58 Z" fill="#ffffff" fill-rule="nonzero" group-id="1,10,47" id="路径_1198" node-id="79" stroke="none" target-height="8.274994" target-width="11.817993" target-x="256.87" target-y="427.611"></path><path d="M 238.78 460.01 L 240.61 457.45 L 244.19 451.77 L 248.57 444.56 L 252.85 437.43 L 256.09 431.97 L 257.38 429.80 L 258.76 429.67 L 261.98 429.58 L 263.86 429.69 L 265.68 429.97 L 267.32 430.49 L 268.46 431.25 L 268.67 431.78 L 268.64 432.88 L 268.16 434.94 L 267.12 438.06 L 265.47 442.22 L 261.49 451.19 L 257.29 459.96 L 253.98 466.61 L 252.63 469.25 L 252.24 470.19 L 251.71 471.10 L 250.73 472.32 L 249.46 473.45 L 247.56 474.59 L 245.32 475.43 L 242.21 475.98 L 235.78 476.68 L 228.13 477.67 L 220.77 478.69 L 215.23 479.48 L 213.05 479.80 L 201.04 465.16 L 208.69 461.20 L 210.83 461.18 L 216.20 461.10 L 223.24 460.95 L 230.39 460.73 L 236.09 460.42 L 238.15 460.19 L 238.78 460.01 Z" fill="#3e68f8" fill-rule="nonzero" group-id="1,10,48" id="路径_1196" node-id="80" stroke="none" target-height="50.22052" target-width="67.62598" target-x="201.043" target-y="429.58347"></path><path d="M 158.00 469.63 L 159.52 472.36 L 160.72 475.72 L 161.58 479.29 L 162.17 483.01 L 162.54 486.71 L 162.72 490.03 L 162.77 495.32 L 162.70 497.40 L 168.11 549.52 L 172.82 551.23 L 177.62 552.49 L 182.51 553.31 L 187.47 553.68 L 192.42 553.61 L 197.40 553.08 L 201.53 552.27 L 205.14 551.28 L 208.27 550.13 L 212.67 548.06 L 215.97 546.07 L 218.81 544.00 L 220.56 542.49 L 222.07 540.94 L 221.93 537.76 L 221.52 529.51 L 220.91 518.10 L 220.14 505.46 L 219.25 493.50 L 218.29 484.15 L 217.74 480.71 L 217.32 479.33 L 215.01 478.08 L 213.24 476.67 L 211.92 475.10 L 210.47 472.42 L 209.66 469.69 L 209.30 466.94 L 209.25 464.60 L 209.40 461.34 L 205.12 460.55 L 200.82 460.35 L 196.48 460.73 L 194.43 462.80 L 192.02 464.37 L 189.34 465.41 L 186.46 465.86 L 184.44 465.79 L 182.51 465.44 L 180.64 464.80 L 178.89 463.89 L 177.29 462.75 L 175.84 461.34 L 174.28 461.32 L 170.42 461.66 L 168.06 462.11 L 165.54 462.85 L 163.13 463.90 L 160.97 465.35 L 159.74 466.54 L 158.75 467.95 L 158.00 469.63 Z" fill="#1a2261" fill-rule="nonzero" group-id="1,10,49" id="路径_1191" node-id="81" stroke="none" target-height="93.33801" target-width="64.07001" target-x="158.004" target-y="460.34613"></path><path d="M 855.04 643.94 L 855.04 733.66 L 854.63 734.34 L 853.99 734.99 L 852.53 735.97 L 850.64 736.86 L 847.43 737.91 L 843.65 738.75 L 838.03 739.54 L 831.71 740.02 L 823.04 740.22 L 812.29 739.90 L 804.79 739.19 L 798.29 738.06 L 794.26 736.94 L 790.99 735.61 L 789.42 734.68 L 788.26 733.66 L 788.26 643.94 Z" fill="url(#linear-gradient)" fill-rule="nonzero" group-id="1,11,50" id="路径_1167" node-id="83" stroke="none" target-height="96.281006" target-width="66.78601" target-x="788.257" target-y="643.937"></path><path d="M 787.93 644.26 L 788.17 643.47 L 788.96 642.62 L 790.58 641.68 L 793.45 640.61 L 797.80 639.56 L 802.60 638.77 L 808.51 638.14 L 814.71 637.75 L 821.62 637.61 L 828.53 637.75 L 834.74 638.14 L 840.64 638.77 L 845.45 639.56 L 849.79 640.61 L 852.67 641.68 L 854.29 642.62 L 855.07 643.47 L 855.31 644.26 L 855.07 645.06 L 854.29 645.90 L 852.67 646.85 L 849.79 647.91 L 845.45 648.97 L 840.64 649.75 L 834.74 650.39 L 828.53 650.77 L 821.62 650.91 L 814.71 650.77 L 808.51 650.39 L 802.60 649.75 L 797.80 648.97 L 793.45 647.91 L 790.58 646.85 L 788.96 645.90 L 788.17 645.06 L 787.93 644.26 Z" fill="#b7bbc2" fill-rule="nonzero" group-id="1,11,51" id="椭圆_359" node-id="84" stroke="none" target-height="13.299988" target-width="67.38501" target-x="787.929" target-y="637.614"></path><path d="M 791.48 646.92 L 791.78 646.37 L 792.89 645.70 L 795.53 644.91 L 799.84 644.15 L 806.19 643.48 L 813.08 643.08 L 821.18 642.93 L 829.27 643.08 L 836.16 643.48 L 842.51 644.15 L 846.82 644.91 L 849.46 645.70 L 850.57 646.37 L 850.88 646.92 L 850.57 647.48 L 849.46 648.15 L 846.82 648.94 L 842.51 649.70 L 836.16 650.37 L 829.27 650.76 L 821.18 650.91 L 813.08 650.76 L 806.19 650.37 L 799.84 649.70 L 795.53 648.94 L 792.89 648.15 L 791.78 647.48 L 791.48 646.92 Z" fill="#769be5" fill-rule="nonzero" group-id="1,11,52" id="椭圆_360" node-id="85" stroke="none" target-height="7.9799805" target-width="59.400024" target-x="791.476" target-y="642.93396"></path><path d="M 834.46 622.96 L 833.60 619.36 L 832.90 617.16 L 832.11 615.37 L 831.43 614.32 L 829.90 612.77 L 829.11 612.02 L 828.16 610.86 L 827.32 609.24 L 826.53 606.64 L 825.99 603.79 L 825.70 600.74 L 825.73 597.76 L 826.10 595.37 L 826.63 593.96 L 827.32 593.13 L 828.16 592.71 L 829.65 592.13 L 831.30 590.91 L 832.77 589.30 L 834.05 587.36 L 834.98 585.24 L 835.42 583.14 L 835.41 581.75 L 835.09 580.50 L 834.46 579.35 L 833.07 577.99 L 831.47 577.03 L 827.96 575.54 L 826.28 574.66 L 824.74 573.43 L 823.91 572.43 L 823.20 571.07 L 822.61 569.27 L 822.23 566.40 L 822.29 563.52 L 822.89 558.08 L 823.03 555.61 L 822.79 553.64 L 822.33 552.50 L 821.54 551.59 L 820.34 550.87 L 818.41 550.36 L 816.39 550.25 L 814.22 550.56 L 812.10 551.21 L 810.14 552.11 L 808.32 553.28 L 806.69 554.69 L 805.51 556.15 L 804.71 557.68 L 803.81 559.28 L 802.55 560.53 L 801.06 561.54 L 799.51 562.37 L 796.81 563.88 L 795.94 564.75 L 795.64 565.74 L 795.85 566.91 L 796.46 568.30 L 798.22 571.07 L 799.89 573.51 L 800.40 574.53 L 800.43 575.07 L 799.96 575.62 L 798.86 576.42 L 797.66 577.39 L 796.28 579.01 L 795.54 580.27 L 794.89 582.03 L 794.38 584.39 L 793.86 586.34 L 793.15 587.49 L 792.21 588.34 L 791.21 588.97 L 790.22 589.56 L 789.35 590.31 L 788.74 591.31 L 788.38 593.00 L 788.44 595.07 L 789.08 598.51 L 789.84 601.96 L 790.16 604.15 L 790.23 606.03 L 790.07 607.18 L 789.74 608.17 L 789.30 608.98 L 788.31 610.92 L 787.91 612.25 L 787.57 614.39 L 786.80 620.17 L 786.52 622.96 L 786.53 625.48 L 786.78 627.08 L 787.30 628.53 L 788.10 629.84 L 789.17 630.94 L 790.72 631.92 L 792.86 632.79 L 797.27 633.81 L 800.92 634.13 L 804.42 634.01 L 807.58 633.63 L 813.79 632.79 L 818.57 632.58 L 824.41 632.12 L 827.35 631.59 L 829.94 630.78 L 831.52 630.01 L 832.78 629.07 L 833.75 627.94 L 834.39 626.63 L 834.64 625.01 L 834.46 622.96 Z" fill="#adbbb4" fill-rule="nonzero" group-id="1,11,53,71" id="路径_1168" node-id="87" stroke="none" target-height="83.88098" target-width="48.904358" target-x="786.518" target-y="550.25116"></path><path d="M 814.04 557.42 L 813.25 561.46 L 811.40 572.16 L 809.28 587.38 L 808.38 595.94 L 807.69 604.98 L 807.35 614.06 L 807.43 622.82 L 807.78 628.63 L 808.41 633.93 L 809.28 638.77 L 810.57 643.51 L 812.17 647.44 L 814.04 650.68" fill="none" group-id="1,11,53,72" id="路径_1169" node-id="88" stroke="#ababab" stroke-linecap="butt" stroke-width="0.6" target-height="93.26599" target-width="6.696594" target-x="807.3454" target-y="557.418"></path><path d="M 818.61 566.17 L 810.81 576.04 L 806.68 570.53" fill="none" group-id="1,11,53,73" id="路径_1170" node-id="89" stroke="#ababab" stroke-linecap="butt" stroke-width="0.6" target-height="9.867004" target-width="11.932007" target-x="806.682" target-y="566.168"></path><path d="M 823.66 582.46 L 820.52 583.81 L 817.67 585.65 L 815.10 587.81 L 812.99 589.97 L 809.94 593.78 L 808.85 595.42 L 807.54 593.50 L 804.32 589.24 L 802.31 586.90 L 800.26 584.87" fill="none" group-id="1,11,53,74" id="路径_1171" node-id="90" stroke="#ababab" stroke-linecap="butt" stroke-width="0.6" target-height="12.963989" target-width="23.406982" target-x="800.257" target-y="582.458"></path><path d="M 821.98 603.23 L 819.34 604.39 L 816.65 606.18 L 814.13 608.31 L 811.89 610.53 L 808.47 614.48 L 807.16 616.20 L 806.35 614.17 L 805.41 612.15 L 803.97 609.48 L 802.22 606.81 L 800.08 604.19 L 798.44 602.62 L 796.67 601.35 L 794.75 600.36" fill="none" group-id="1,11,53,75" id="路径_1172" node-id="91" stroke="#ababab" stroke-linecap="butt" stroke-width="0.6" target-height="15.836975" target-width="27.22699" target-x="794.75" target-y="600.35803"></path><path d="M 816.67 621.58 L 815.04 622.06 L 813.40 623.10 L 811.91 624.46 L 810.58 625.99 L 808.60 628.79 L 807.85 630.05 L 796.24 625.60" fill="none" group-id="1,11,53,76" id="路径_1173" node-id="92" stroke="#ababab" stroke-linecap="butt" stroke-width="0.6" target-height="8.463013" target-width="20.422974" target-x="796.243" target-y="621.583"></path><path d="M 802.48 617.72 L 803.50 613.45 L 804.33 610.83 L 805.27 608.69 L 806.08 607.45 L 807.90 605.61 L 808.84 604.71 L 809.97 603.34 L 810.78 601.85 L 811.58 599.57 L 812.19 597.05 L 812.64 594.19 L 812.89 591.28 L 812.91 588.53 L 812.64 585.93 L 812.10 583.95 L 811.51 582.82 L 810.81 582.12 L 809.97 581.76 L 808.19 581.07 L 806.23 579.62 L 804.48 577.70 L 802.96 575.39 L 801.86 572.87 L 801.33 570.38 L 801.34 568.73 L 801.72 567.24 L 802.48 565.88 L 804.13 564.26 L 806.03 563.12 L 810.20 561.34 L 812.20 560.29 L 814.03 558.84 L 815.01 557.64 L 815.87 556.02 L 816.57 553.89 L 817.01 550.47 L 816.94 547.05 L 816.23 540.59 L 816.07 537.65 L 816.35 535.30 L 816.90 533.95 L 817.84 532.87 L 819.26 532.01 L 820.97 531.50 L 822.76 531.27 L 824.66 531.33 L 827.48 531.88 L 830.24 532.91 L 832.81 534.34 L 834.99 536.06 L 836.75 538.05 L 837.85 540.10 L 838.92 542.01 L 840.42 543.49 L 842.19 544.69 L 844.03 545.68 L 847.24 547.47 L 848.28 548.51 L 848.63 549.69 L 848.39 551.07 L 847.66 552.73 L 845.56 556.02 L 843.58 558.92 L 842.98 560.13 L 842.94 560.78 L 843.32 561.28 L 844.15 561.92 L 846.31 563.63 L 847.44 564.87 L 848.59 566.68 L 849.47 568.83 L 850.14 571.87 L 850.75 574.18 L 851.60 575.54 L 852.72 576.56 L 853.91 577.30 L 855.08 578.02 L 856.11 578.91 L 856.84 580.09 L 857.27 582.10 L 857.19 584.56 L 856.43 588.65 L 855.53 592.76 L 855.15 595.36 L 855.07 597.60 L 855.25 598.97 L 855.65 600.14 L 856.17 601.10 L 857.35 603.41 L 857.83 604.99 L 858.23 607.53 L 859.14 614.41 L 859.48 617.73 L 859.47 620.72 L 859.17 622.63 L 858.55 624.34 L 857.60 625.91 L 856.33 627.21 L 854.49 628.38 L 851.93 629.41 L 848.33 630.32 L 845.15 630.84 L 842.35 631.01 L 838.20 630.87 L 834.44 630.41 L 827.06 629.41 L 821.38 629.16 L 817.99 628.97 L 814.42 628.61 L 810.93 627.98 L 807.85 627.02 L 805.97 626.11 L 804.47 624.98 L 803.32 623.64 L 802.56 622.09 L 802.26 620.16 L 802.48 617.72 Z" fill="#cbd7d1" fill-rule="nonzero" group-id="1,11,54,77" id="路径_1168-2" node-id="94" stroke="none" target-height="99.73596" target-width="58.151062" target-x="801.33" target-y="531.27325"></path><path d="M 826.75 539.79 L 827.48 543.51 L 829.28 553.54 L 831.49 568.16 L 832.54 576.54 L 833.49 585.69 L 834.21 594.99 L 834.65 604.40 L 834.71 613.76 L 834.33 622.61 L 833.78 628.44 L 832.96 633.76 L 831.91 638.60 L 830.46 643.34 L 828.73 647.33 L 826.75 650.68" fill="none" group-id="1,11,54,78" id="路径_1169-2" node-id="95" stroke="#707070" stroke-linecap="butt" stroke-width="0.6" target-height="110.888" target-width="7.967041" target-x="826.747" target-y="539.795"></path><path d="M 821.31 550.20 L 830.59 561.93 L 835.50 555.38" fill="none" group-id="1,11,54,79" id="路径_1170-2" node-id="96" stroke="#707070" stroke-linecap="butt" stroke-width="0.6" target-height="11.731018" target-width="14.185974" target-x="821.311" target-y="550.199"></path><path d="M 815.31 569.57 L 817.84 570.58 L 820.22 571.84 L 822.44 573.36 L 825.49 575.93 L 828.01 578.50 L 830.19 581.09 L 831.63 583.03 L 832.93 584.98 L 833.83 583.63 L 836.19 580.34 L 839.47 576.24 L 841.32 574.20 L 843.14 572.43" fill="none" group-id="1,11,54,80" id="路径_1171-2" node-id="97" stroke="#707070" stroke-linecap="butt" stroke-width="0.6" target-height="15.411011" target-width="27.830017" target-x="815.31" target-y="569.57"></path><path d="M 817.31 594.27 L 819.40 595.10 L 821.51 596.26 L 823.65 597.76 L 826.64 600.30 L 829.31 602.94 L 833.37 607.63 L 834.93 609.68 L 835.89 607.27 L 837.01 604.87 L 838.73 601.70 L 840.80 598.52 L 843.35 595.40 L 845.30 593.54 L 847.40 592.03 L 849.69 590.85" fill="none" group-id="1,11,54,81" id="路径_1172-2" node-id="98" stroke="#707070" stroke-linecap="butt" stroke-width="0.6" target-height="18.82898" target-width="32.374023" target-x="817.313" target-y="590.849"></path><path d="M 823.63 616.09 L 825.57 616.66 L 827.51 617.89 L 829.28 619.51 L 830.86 621.32 L 833.22 624.65 L 834.11 626.15 L 847.91 620.86" fill="none" group-id="1,11,54,82" id="路径_1173-2" node-id="99" stroke="#707070" stroke-linecap="butt" stroke-width="0.6" target-height="10.060974" target-width="24.281006" target-x="823.631" target-y="616.086"></path></g></g></svg>