<?xml version="1.0" standalone="no"?><!DOCTYPE svg PUBLIC "-//W3C//DTD SVG 1.1//EN" "http://www.w3.org/Graphics/SVG/1.1/DTD/svg11.dtd"><svg t="1710596758921" class="icon" viewBox="0 0 1024 1024" version="1.1" xmlns="http://www.w3.org/2000/svg" p-id="15316" xmlns:xlink="http://www.w3.org/1999/xlink" width="128" height="128"><path d="M789.8112 814.353067v15.8208c0 39.048533-31.914667 70.997333-70.894933 70.997333H352.631467a71.168 71.168 0 0 1-70.894934-70.997333v-15.8208c0-39.031467 31.914667-70.980267 70.894934-70.980267h366.2848a71.150933 71.150933 0 0 1 70.894933 70.997333z" fill="#58EDD8" p-id="15317"></path><path d="M689.288533 825.924267v32.9728c0 23.3472-17.595733 42.257067-39.304533 42.257066h-301.568c-21.7088 0-39.287467-18.909867-39.287467-42.257066v-32.9728c0-23.3472 17.578667-42.257067 39.287467-42.257067h301.568c21.7088 0 39.304533 18.909867 39.304533 42.257067z" fill="#83FAE8" p-id="15318"></path><path d="M371.319467 901.154133a48.384 48.384 0 1 0 0-96.768 48.384 48.384 0 0 0 0 96.768z" fill="#FFC993" p-id="15319"></path><path d="M371.319467 894.2592a27.648 27.648 0 1 0 0-55.296 27.648 27.648 0 0 0 0 55.296z" fill="#FFE2C9" p-id="15320"></path><path d="M525.0048 153.770667c2.56 1.706667 4.8128 3.447467 6.826667 5.1712 14.1312-9.437867 30.481067-15.274667 48.896-17.578667 31.419733-3.908267 53.5552 8.5504 65.4848 31.300267 1.143467 2.184533 2.1504 4.352 3.037866 6.485333a103.082667 103.082667 0 0 1 19.456-4.164267c62.3104-7.2704 100.7104 31.317333 119.057067 104.277334 12.7488 50.653867 15.5648 102.587733 15.5648 208.622933 0 63.300267-32.119467 195.7888-102.007467 211.114667-46.592 10.1888-144.2816 11.946667-293.085866 5.205333-4.1984-4.010667-45.858133-18.909867-54.9888-28.910933-15.1552-16.571733-56.968533-20.0704-71.133867-39.560534-31.061333-42.7008-53.077333-85.060267-62.0032-125.5936-3.754667-16.981333-5.12-33.4336-3.84-49.237333 5.8368-72.618667 20.906667-107.793067 62.805333-127.505067 0.341333-42.513067 20.514133-94.805333 49.954134-123.869866a114.107733 114.107733 0 0 1 29.883733-21.060267 143.7696 143.7696 0 0 1 49.322667-14.199467c12.151467-15.36 26.9312-26.231467 43.758933-30.225066 30.139733-7.168 54.596267-2.628267 73.0112 9.728z" fill="#FFC993" p-id="15321"></path><path d="M350.600533 444.757333c34.542933 24.712533 74.871467 30.4128 120.951467 17.066667 69.12-20.0192 210.0736-16.162133 248.832 8.789333 16.964267 10.922667 32.6656 72.2432 9.6256 121.582934-3.413333 7.287467-46.813867 46.8992-51.0976 53.8112-33.092267 53.316267-50.2784 61.405867-86.408533 61.405866-48.366933 0-111.957333-1.1776-190.788267-3.515733l-40.1408-96.443733-55.9104-136.840534 44.936533-25.856z" fill="#FFD6AE" p-id="15322"></path><path d="M467.234133 199.509333c42.734933-77.312 100.2496-93.764267 164.6592-45.653333 6.109867 4.573867 21.128533 22.9888 16.554667 29.115733-4.5568 6.109867-20.599467 7.748267-33.109333-6.9632-50.2272-37.512533-88.900267-26.453333-123.904 36.864-24.3712 44.100267-25.6 96.136533-7.970134 144.776534 14.4384 39.799467 40.209067 70.3488 56.388267 72.584533 23.5008 3.2256 35.5328-1.262933 40.157867-12.168533a13.824 13.824 0 0 1 25.4464 10.786133c-10.325333 24.3712-34.798933 33.518933-69.376 28.757333-68.590933-9.437867-123.153067-159.863467-68.846934-258.116266z" fill="#FF9E5C" p-id="15323"></path><path d="M374.340267 200.157867c37.666133-77.858133 89.992533-94.958933 147.6608-45.738667 5.802667 4.949333 0.170667 8.925867-4.778667 14.7456-4.9664 5.802667-7.3728 11.246933-13.175467 6.280533-42.6496-36.4032-74.461867-26.0096-104.823466 36.7616-21.486933 44.424533-22.5792 96.955733-7.031467 145.9712 12.561067 39.594667 35.037867 70.0416 48.042667 72.0896 18.346667 2.884267 27.716267-0.494933 32.0512-9.796266l0.750933-1.826134a13.824 13.824 0 1 1 25.941333 9.608534c-9.130667 24.610133-31.709867 34.2528-63.044266 29.320533-61.354667-9.642667-108.919467-159.573333-61.610667-257.416533z" fill="#FF9E5C" p-id="15324"></path><path d="M343.671467 689.578667c-93.832533-43.6224-155.136-134.912-142.216534-231.3216 12.9024-96.426667 32.768-123.0848 58.282667-128.3072 25.514667-5.239467 263.1168-33.058133 239.803733 72.0384-15.530667 70.075733-65.399467 97.006933-149.589333 80.810666 7.748267 49.698133 15.445333 84.514133 23.057067 104.448 25.873067 67.720533 72.362667 102.792533 136.5504 120.1664-1.0752-0.375467-115.8144 9.6768-165.888-17.834666z" fill="#FFEAD7" p-id="15325"></path><path d="M670.020267 172.714667c7.441067-1.706667 18.602667 2.304 20.002133 13.226666a13.824 13.824 0 0 1-10.410667 16.554667c-60.8768 13.892267-90.555733 56.081067-90.555733 130.594133 0 74.752 20.650667 113.288533 59.733333 120.558934 44.629333 5.2736 67.396267-31.624533 67.396267-120.558934a13.824 13.824 0 1 1 27.648 0c0 103.150933-32.4608 155.784533-99.1744 147.882667-55.927467-10.359467-83.2512-61.371733-83.2512-147.882667 0-86.784 34.423467-143.4624 108.612267-160.392533z" fill="#FF9E5C" p-id="15326"></path></svg>