<?xml version="1.0" standalone="no"?><!DOCTYPE svg PUBLIC "-//W3C//DTD SVG 1.1//EN" "http://www.w3.org/Graphics/SVG/1.1/DTD/svg11.dtd"><svg t="1710596527211" class="icon" viewBox="0 0 1024 1024" version="1.1" xmlns="http://www.w3.org/2000/svg" p-id="2438" xmlns:xlink="http://www.w3.org/1999/xlink" width="128" height="128"><path d="M781.445713 801.385759l16.347436-83.437825 46.321279 9.055927a24.02159 24.02159 0 0 1 19.599917 27.018975l-25.594685 130.800747a71.001868 71.001868 0 0 1-56.673947-83.437824z" fill="#656769" p-id="2439"></path><path d="M519.652896 606.279427a56.758979 56.758979 0 0 0-9.140959 79.505086l32.524808 41.028026a239.578161 239.578161 0 0 0 143.70438 86.520241l89.708948 16.793855 21.258044-112.242475-78.442184-14.880631a168.151131 168.151131 0 0 1-102.038613-63.774133L600.008304 616.483288a56.546398 56.546398 0 0 0-80.355408-9.991281z" fill="#00B8F0" p-id="2440"></path><path d="M618.290222 639.867137l-18.281918-23.383849a56.758979 56.758979 0 1 0-89.496367 69.513806l32.524808 41.028025a251.482666 251.482666 0 0 0 42.516089 42.516089 613.932323 613.932323 0 0 1 85.032177-83.544114A170.064355 170.064355 0 0 1 618.290222 639.867137z" fill="#009FD9" p-id="2441"></path><path d="M350.757733 865.521279l78.442184 32.779904-18.175628 43.557733a24.02159 24.02159 0 0 1-31.440648 12.903633l-121.999917-50.998048a71.001868 71.001868 0 0 1 93.174009-38.243222z" fill="#656769" p-id="2442"></path><path d="M530.069338 590.973635L465.232302 637.741333a335.877102 335.877102 0 0 0-105.22732 133.713099l-36.138675 82.906373 106.290222 44.004152 32.524808-78.229603a217.257214 217.257214 0 0 1 68.876064-88.858626l68.025742-49.106082a56.971559 56.971559 0 0 0 11.266764-79.930247 57.39672 57.39672 0 0 0-80.780569-11.266764z" fill="#00B8F0" p-id="2443"></path><path d="M610.212165 602.240399a57.39672 57.39672 0 0 0-80.142827-11.266764L465.232302 637.741333a328.436786 328.436786 0 0 0-51.657048 48.468341 1349.24808 1349.24808 0 0 0 191.3224-9.140959 56.971559 56.971559 0 0 0 5.314511-74.828316z" fill="#009FD9" p-id="2444"></path><path d="M449.437575 394.209176l7.652896 6.7388a37.626739 37.626739 0 0 1 3.48632 53.102595l-63.348973 72.234835-63.922939-56.057463 63.348972-72.256093a37.626739 37.626739 0 0 1 52.783724-3.762674z" fill="#E04122" p-id="2445"></path><path d="M237.983807 988.073905a275.504256 35.926095 0 1 0 551.008512 0 275.504256 35.926095 0 1 0-551.008512 0Z" fill="#45413C" opacity=".15" p-id="2446"></path><path d="M609.574424 561.637534l-114.79344 59.735105a24.02159 24.02159 0 0 1-32.312228-10.203862 359.898692 359.898692 0 0 1-42.516088-103.314096c-22.320947-72.277351-27.422877-138.389869 9.353539-157.522109a51.657048 51.657048 0 0 1 65.049616 11.904505l123.934399 163.686942a24.02159 24.02159 0 0 1-8.715798 35.713515z" fill="#FF6242" p-id="2447"></path><path d="M466.932946 616.483288c-5.314511-13.817729-11.266764-30.399004-17.431597-50.806726-21.258044-72.489931-27.422877-138.60245 9.35354-157.522109a51.657048 51.657048 0 0 1 65.049616 11.691924l96.936682 127.548267a23.80901 23.80901 0 0 0-2.550965-21.470625L493.505501 361.386755a51.657048 51.657048 0 0 0-65.049616-11.904505c-36.776417 19.13224-31.674486 85.032178-9.353539 157.52211a359.898692 359.898692 0 0 0 42.516089 103.314095 25.297073 25.297073 0 0 0 5.314511 6.164833z" fill="#FF866E" p-id="2448"></path><path d="M199.294166 448.544737a36.563836 36.563836 0 0 0 1.062903 52.50737l28.69836 27.422877a113.092796 113.092796 0 0 0 162.198879-7.440315l-55.058335-49.531244a39.752543 39.752543 0 0 1-57.821881 2.338385l-27.210297-25.934814a36.563836 36.563836 0 0 0-51.869629 0.637741z" fill="#FFCEBF" p-id="2449"></path><path d="M320.6776 557.811086a112.029894 112.029894 0 0 0 70.151547-36.776417l-55.058335-49.531244a40.390284 40.390284 0 0 1-29.761262 13.605149z" fill="#FFB59E" p-id="2450"></path><path d="M447.311771 351.9907a45.279635 45.279635 0 0 1 62.775005-12.648537l79.675151 52.932531-50.126469 75.423541-79.675151-52.93253a45.279635 45.279635 0 0 1-12.648536-62.775005z" fill="#FF6242" p-id="2451"></path><path d="M490.741956 382.6448a45.279635 45.279635 0 0 1 63.774133-12.542247l36.138675 24.021591v-1.062903L510.086776 340.128711a45.279635 45.279635 0 0 0-50.168985 75.253477l34.438032 22.958688A45.067054 45.067054 0 0 1 490.741956 382.6448z" fill="#FF866E" p-id="2452"></path><path d="M608.298941 616.483288A36.776417 36.776417 0 0 1 575.774133 575.030102l6.802574-51.657048a48.255761 48.255761 0 0 0-19.132239-45.067054l-21.258045-15.518373 41.028026-63.774133 12.967407 9.353539a144.129541 144.129541 0 0 1 58.034461 137.964709l-5.952252 38.47706A36.563836 36.563836 0 0 1 608.298941 616.483288z" fill="#FFCEBF" p-id="2453"></path><path d="M597.032178 408.792194l-12.967407-9.353539-41.028026 63.774133 21.258044 15.518372a46.767698 46.767698 0 0 1 13.392568 16.156114l30.399004-76.52896a114.79344 114.79344 0 0 0-11.054183-9.56612z" fill="#FFB59E" p-id="2454"></path><path d="M338.959518 215.981731m-120.320531 0a120.320531 120.320531 0 1 0 240.641063 0 120.320531 120.320531 0 1 0-240.641063 0Z" fill="#FFCEBF" p-id="2455"></path><path d="M394.443014 85.032178a151.144696 151.144696 0 0 0-109.266348-3.826448 58.247042 58.247042 0 0 1-66.537679-11.054183s-44.429313 76.316379 7.440315 103.951837C280.287316 196.42433 345.549512 170.064355 345.549512 170.064355l-5.952252 42.516089s27.422877-15.730953 42.516089 1.275483 7.440316 63.774133-24.234171 59.097363a63.774133 63.774133 0 0 0 22.533527 56.971559A120.107951 120.107951 0 0 0 458.004567 233.838489c9.56612-66.325099-4.251609-113.517957-63.561553-148.806311z" fill="#A86C4D" p-id="2456"></path><path d="M211.623832 135.201163a12.117085 12.117085 0 0 1 7.440316-6.589994 12.542246 12.542246 0 0 1 9.991281 0 63.774133 63.774133 0 0 0 56.121237 3.401287 151.144696 151.144696 0 0 1 109.266348 3.826448 118.832468 118.832468 0 0 1 63.774134 88.433465c7.227735-61.648329-7.865476-106.290222-63.774134-139.452772a151.144696 151.144696 0 0 0-109.266348-3.826448 58.247042 58.247042 0 0 1-66.537679-10.841602s-28.48578 48.893502-13.179988 82.481212a181.75628 181.75628 0 0 1 6.164833-17.431596z" fill="#DE926A" p-id="2457"></path></svg>