<?xml version="1.0" standalone="no"?>
<!DOCTYPE svg PUBLIC "-//W3C//DTD SVG 1.1//EN" "http://www.w3.org/Graphics/SVG/1.1/DTD/svg11.dtd">
<svg t="1710596672875" class="icon" viewBox="0 0 1036 1024" version="1.1"
  xmlns="http://www.w3.org/2000/svg" p-id="8676" xmlns:xlink="http://www.w3.org/1999/xlink"
  width="129.5" height="128">
  <path
    d="M184.9088 320.2688L156.2496 561.9584h96.9856l38.912-209.3952a14.464 14.464 0 0 1 10.112-11.2256l192.2304-57.2928v-29.248L196.7488 307.712a14.464 14.464 0 0 0-11.84 12.544z"
    fill="#FB896F" p-id="8677"></path>
  <path
    d="M235.8144 229.7344m-53.0816 0a53.0816 53.0816 0 1 0 106.1632 0 53.0816 53.0816 0 1 0-106.1632 0Z"
    fill="#FFCD00" p-id="8678"></path>
  <path
    d="M156.2496 561.9584l7.8848 20.8896c1.152 3.0336 1.2416 6.3744 0.256 9.472L80.1536 858.8672l32.6784 5.6448 140.416-302.5536H156.2368z"
    fill="#FFCD00" p-id="8679"></path>
  <path
    d="M240.3072 589.4912l12.928-27.52 10.2016-56.4608 126.0032 38.4256c7.04 2.1376 11.3408 9.2416 10.0096 16.4736l-30.6432 165.6192-43.4304 26.1888 9.8176-148.9408a14.464 14.464 0 0 0-14.7328-15.424l-80.1536 1.6384z"
    fill="#F84370" p-id="8680"></path>
  <path
    d="M67.1872 858.1632s-20.7616 58.9824-14.976 77.5296C64.768 972.8 128.4992 972.8 184.96 972.8h727.424a48.256 48.256 0 0 0 47.04-58.9568C836.7104 374.4384 767.2832 95.8464 751.1168 78.0928c-39.0912-43.2768-85.4272-27.584-102.8096 0-17.3696 27.5968 2.4192 87.04-39.0912 117.9648-41.5104 30.912-84.9536 34.7264-84.9536 34.7264a30.9888 30.9888 0 0 1-8.6784 2.8544c-9.1776 2.8544-11.584 2.8544-19.3152 8.5632-5.7856 4.7488-10.624 9.5104-14.9632 15.6928-5.4656 8.0512-4.8256 16.2944 1.9328 24.7296 10.1376 12.672-90.5984 368.2688-130.176 423.808-39.5776 55.552-208.64 161.0496-241.472 138.8928-21.888-14.7712-36.6848-10.496-44.416 12.8384z"
    fill="#3DD0D8" p-id="8681"></path>
</svg>