<?xml version="1.0" standalone="no"?><!DOCTYPE svg PUBLIC "-//W3C//DTD SVG 1.1//EN" "http://www.w3.org/Graphics/SVG/1.1/DTD/svg11.dtd"><svg t="1710595320342" class="icon" viewBox="0 0 1024 1024" version="1.1" xmlns="http://www.w3.org/2000/svg" p-id="6241" xmlns:xlink="http://www.w3.org/1999/xlink" width="128" height="128"><path d="M192 96h672a32 32 0 0 1 32 32v768a32 32 0 0 1-32 32H192a32 32 0 0 1-32-32V128a32 32 0 0 1 32-32z" fill="#92C5FF" p-id="6242"></path><path d="M416 224h384v288H416V224zM288 96h64v832H288V96z m128 512h384v64H416v-64z m0 128h224v64h-224v-64zM160 224h64a32 32 0 1 1 0 64H160a32 32 0 1 1 0-64zM160 480h64a32 32 0 0 1 0 64H160a32 32 0 0 1 0-64zM160 736h64a32 32 0 0 1 0 64H160a32 32 0 0 1 0-64z" fill="#5F9EE7" p-id="6243"></path></svg>